<?xml version="1.0" encoding="utf-8"?>
<svg width="292" height="40" viewBox="0 0 292 40" fill="none" xmlns="http://www.w3.org/2000/svg">
  <path d="M60.168 21.918H55.8203V19.1758H60.168C60.8398 19.1758 61.3867 19.0664 61.8086 18.8477C62.2305 18.6211 62.5391 18.3086 62.7344 17.9102C62.9297 17.5117 63.0273 17.0625 63.0273 16.5625C63.0273 16.0547 62.9297 15.582 62.7344 15.1445C62.5391 14.707 62.2305 14.3555 61.8086 14.0898C61.3867 13.8242 60.8398 13.6914 60.168 13.6914H57.0391V28H53.5234V10.9375H60.168C61.5039 10.9375 62.6484 11.1797 63.6016 11.6641C64.5625 12.1406 65.2969 12.8008 65.8047 13.6445C66.3125 14.4883 66.5664 15.4531 66.5664 16.5391C66.5664 17.6406 66.3125 18.5938 65.8047 19.3984C65.2969 20.2031 64.5625 20.8242 63.6016 21.2617C62.6484 21.6992 61.5039 21.918 60.168 21.918ZM74.4531 28.2344C73.4688 28.2344 72.5859 28.0781 71.8047 27.7656C71.0234 27.4453 70.3594 27.0039 69.8125 26.4414C69.2734 25.8789 68.8594 25.2266 68.5703 24.4844C68.2812 23.7344 68.1367 22.9375 68.1367 22.0938V21.625C68.1367 20.6641 68.2734 19.7852 68.5469 18.9883C68.8203 18.1914 69.2109 17.5 69.7188 16.9141C70.2344 16.3281 70.8594 15.8789 71.5938 15.5664C72.3281 15.2461 73.1562 15.0859 74.0781 15.0859C74.9766 15.0859 75.7734 15.2344 76.4688 15.5312C77.1641 15.8281 77.7461 16.25 78.2148 16.7969C78.6914 17.3438 79.0508 18 79.293 18.7656C79.5352 19.5234 79.6562 20.3672 79.6562 21.2969V22.7031H69.5781V20.4531H76.3398V20.1953C76.3398 19.7266 76.2539 19.3086 76.082 18.9414C75.918 18.5664 75.668 18.2695 75.332 18.0508C74.9961 17.832 74.5664 17.7227 74.043 17.7227C73.5977 17.7227 73.2148 17.8203 72.8945 18.0156C72.5742 18.2109 72.3125 18.4844 72.1094 18.8359C71.9141 19.1875 71.7656 19.6016 71.6641 20.0781C71.5703 20.5469 71.5234 21.0625 71.5234 21.625V22.0938C71.5234 22.6016 71.5938 23.0703 71.7344 23.5C71.8828 23.9297 72.0898 24.3008 72.3555 24.6133C72.6289 24.9258 72.957 25.168 73.3398 25.3398C73.7305 25.5117 74.1719 25.5977 74.6641 25.5977C75.2734 25.5977 75.8398 25.4805 76.3633 25.2461C76.8945 25.0039 77.3516 24.6406 77.7344 24.1562L79.375 25.9375C79.1094 26.3203 78.7461 26.6875 78.2852 27.0391C77.832 27.3906 77.2852 27.6797 76.6445 27.9062C76.0039 28.125 75.2734 28.2344 74.4531 28.2344ZM84.9531 18.0859V28H81.5781V15.3203H84.7539L84.9531 18.0859ZM88.7734 15.2383L88.7148 18.3672C88.5508 18.3438 88.3516 18.3242 88.1172 18.3086C87.8906 18.2852 87.6836 18.2734 87.4961 18.2734C87.0195 18.2734 86.6055 18.3359 86.2539 18.4609C85.9102 18.5781 85.6211 18.7539 85.3867 18.9883C85.1602 19.2227 84.9883 19.5078 84.8711 19.8438C84.7617 20.1797 84.6992 20.5625 84.6836 20.9922L84.0039 20.7812C84.0039 19.9609 84.0859 19.207 84.25 18.5195C84.4141 17.8242 84.6523 17.2188 84.9648 16.7031C85.2852 16.1875 85.6758 15.7891 86.1367 15.5078C86.5977 15.2266 87.125 15.0859 87.7188 15.0859C87.9062 15.0859 88.0977 15.1016 88.293 15.1328C88.4883 15.1562 88.6484 15.1914 88.7734 15.2383ZM95.3711 25.5977C95.7852 25.5977 96.1523 25.5195 96.4727 25.3633C96.793 25.1992 97.043 24.9727 97.2227 24.6836C97.4102 24.3867 97.5078 24.0391 97.5156 23.6406H100.691C100.684 24.5312 100.445 25.3242 99.9766 26.0195C99.5078 26.707 98.8789 27.25 98.0898 27.6484C97.3008 28.0391 96.418 28.2344 95.4414 28.2344C94.457 28.2344 93.5977 28.0703 92.8633 27.7422C92.1367 27.4141 91.5312 26.9609 91.0469 26.3828C90.5625 25.7969 90.1992 25.1172 89.957 24.3438C89.7148 23.5625 89.5938 22.7266 89.5938 21.8359V21.4961C89.5938 20.5977 89.7148 19.7617 89.957 18.9883C90.1992 18.207 90.5625 17.5273 91.0469 16.9492C91.5312 16.3633 92.1367 15.9062 92.8633 15.5781C93.5898 15.25 94.4414 15.0859 95.418 15.0859C96.457 15.0859 97.3672 15.2852 98.1484 15.6836C98.9375 16.082 99.5547 16.6523 100 17.3945C100.453 18.1289 100.684 19 100.691 20.0078H97.5156C97.5078 19.5859 97.418 19.2031 97.2461 18.8594C97.082 18.5156 96.8398 18.2422 96.5195 18.0391C96.207 17.8281 95.8203 17.7227 95.3594 17.7227C94.8672 17.7227 94.4648 17.8281 94.1523 18.0391C93.8398 18.2422 93.5977 18.5234 93.4258 18.8828C93.2539 19.2344 93.1328 19.6367 93.0625 20.0898C93 20.5352 92.9688 21.0039 92.9688 21.4961V21.8359C92.9688 22.3281 93 22.8008 93.0625 23.2539C93.125 23.707 93.2422 24.1094 93.4141 24.4609C93.5938 24.8125 93.8398 25.0898 94.1523 25.293C94.4648 25.4961 94.8711 25.5977 95.3711 25.5977ZM108.484 28.2344C107.5 28.2344 106.617 28.0781 105.836 27.7656C105.055 27.4453 104.391 27.0039 103.844 26.4414C103.305 25.8789 102.891 25.2266 102.602 24.4844C102.312 23.7344 102.168 22.9375 102.168 22.0938V21.625C102.168 20.6641 102.305 19.7852 102.578 18.9883C102.852 18.1914 103.242 17.5 103.75 16.9141C104.266 16.3281 104.891 15.8789 105.625 15.5664C106.359 15.2461 107.188 15.0859 108.109 15.0859C109.008 15.0859 109.805 15.2344 110.5 15.5312C111.195 15.8281 111.777 16.25 112.246 16.7969C112.723 17.3438 113.082 18 113.324 18.7656C113.566 19.5234 113.688 20.3672 113.688 21.2969V22.7031H103.609V20.4531H110.371V20.1953C110.371 19.7266 110.285 19.3086 110.113 18.9414C109.949 18.5664 109.699 18.2695 109.363 18.0508C109.027 17.832 108.598 17.7227 108.074 17.7227C107.629 17.7227 107.246 17.8203 106.926 18.0156C106.605 18.2109 106.344 18.4844 106.141 18.8359C105.945 19.1875 105.797 19.6016 105.695 20.0781C105.602 20.5469 105.555 21.0625 105.555 21.625V22.0938C105.555 22.6016 105.625 23.0703 105.766 23.5C105.914 23.9297 106.121 24.3008 106.387 24.6133C106.66 24.9258 106.988 25.168 107.371 25.3398C107.762 25.5117 108.203 25.5977 108.695 25.5977C109.305 25.5977 109.871 25.4805 110.395 25.2461C110.926 25.0039 111.383 24.6406 111.766 24.1562L113.406 25.9375C113.141 26.3203 112.777 26.6875 112.316 27.0391C111.863 27.3906 111.316 27.6797 110.676 27.9062C110.035 28.125 109.305 28.2344 108.484 28.2344ZM118.914 18.0273V28H115.539V15.3203H118.703L118.914 18.0273ZM118.422 21.2148H117.508C117.508 20.2773 117.629 19.4336 117.871 18.6836C118.113 17.9258 118.453 17.2812 118.891 16.75C119.328 16.2109 119.848 15.8008 120.449 15.5195C121.059 15.2305 121.738 15.0859 122.488 15.0859C123.082 15.0859 123.625 15.1719 124.117 15.3438C124.609 15.5156 125.031 15.7891 125.383 16.1641C125.742 16.5391 126.016 17.0352 126.203 17.6523C126.398 18.2695 126.496 19.0234 126.496 19.9141V28H123.098V19.9023C123.098 19.3398 123.02 18.9023 122.863 18.5898C122.707 18.2773 122.477 18.0586 122.172 17.9336C121.875 17.8008 121.508 17.7344 121.07 17.7344C120.617 17.7344 120.223 17.8242 119.887 18.0039C119.559 18.1836 119.285 18.4336 119.066 18.7539C118.855 19.0664 118.695 19.4336 118.586 19.8555C118.477 20.2773 118.422 20.7305 118.422 21.2148ZM135.273 15.3203V17.7109H127.891V15.3203H135.273ZM129.719 12.1914H133.094V24.1797C133.094 24.5469 133.141 24.8281 133.234 25.0234C133.336 25.2188 133.484 25.3555 133.68 25.4336C133.875 25.5039 134.121 25.5391 134.418 25.5391C134.629 25.5391 134.816 25.5312 134.98 25.5156C135.152 25.4922 135.297 25.4688 135.414 25.4453L135.426 27.9297C135.137 28.0234 134.824 28.0977 134.488 28.1523C134.152 28.207 133.781 28.2344 133.375 28.2344C132.633 28.2344 131.984 28.1133 131.43 27.8711C130.883 27.6211 130.461 27.2227 130.164 26.6758C129.867 26.1289 129.719 25.4102 129.719 24.5195V12.1914ZM144.039 25.1406V19.4922C144.039 19.0859 143.973 18.7383 143.84 18.4492C143.707 18.1523 143.5 17.9219 143.219 17.7578C142.945 17.5938 142.59 17.5117 142.152 17.5117C141.777 17.5117 141.453 17.5781 141.18 17.7109C140.906 17.8359 140.695 18.0195 140.547 18.2617C140.398 18.4961 140.324 18.7734 140.324 19.0938H136.949C136.949 18.5547 137.074 18.043 137.324 17.5586C137.574 17.0742 137.938 16.6484 138.414 16.2812C138.891 15.9062 139.457 15.6133 140.113 15.4023C140.777 15.1914 141.52 15.0859 142.34 15.0859C143.324 15.0859 144.199 15.25 144.965 15.5781C145.73 15.9062 146.332 16.3984 146.77 17.0547C147.215 17.7109 147.438 18.5312 147.438 19.5156V24.9414C147.438 25.6367 147.48 26.207 147.566 26.6523C147.652 27.0898 147.777 27.4727 147.941 27.8008V28H144.531C144.367 27.6562 144.242 27.2266 144.156 26.7109C144.078 26.1875 144.039 25.6641 144.039 25.1406ZM144.484 20.2773L144.508 22.1875H142.621C142.176 22.1875 141.789 22.2383 141.461 22.3398C141.133 22.4414 140.863 22.5859 140.652 22.7734C140.441 22.9531 140.285 23.1641 140.184 23.4062C140.09 23.6484 140.043 23.9141 140.043 24.2031C140.043 24.4922 140.109 24.7539 140.242 24.9883C140.375 25.2148 140.566 25.3945 140.816 25.5273C141.066 25.6523 141.359 25.7148 141.695 25.7148C142.203 25.7148 142.645 25.6133 143.02 25.4102C143.395 25.207 143.684 24.957 143.887 24.6602C144.098 24.3633 144.207 24.082 144.215 23.8164L145.105 25.2461C144.98 25.5664 144.809 25.8984 144.59 26.2422C144.379 26.5859 144.109 26.9102 143.781 27.2148C143.453 27.5117 143.059 27.7578 142.598 27.9531C142.137 28.1406 141.59 28.2344 140.957 28.2344C140.152 28.2344 139.422 28.0742 138.766 27.7539C138.117 27.4258 137.602 26.9766 137.219 26.4062C136.844 25.8281 136.656 25.1719 136.656 24.4375C136.656 23.7734 136.781 23.1836 137.031 22.668C137.281 22.1523 137.648 21.7188 138.133 21.3672C138.625 21.0078 139.238 20.7383 139.973 20.5586C140.707 20.3711 141.559 20.2773 142.527 20.2773H144.484ZM158.066 15.3203H161.125V27.5781C161.125 28.7344 160.867 29.7148 160.352 30.5195C159.844 31.332 159.133 31.9453 158.219 32.3594C157.305 32.7812 156.242 32.9922 155.031 32.9922C154.5 32.9922 153.938 32.9219 153.344 32.7812C152.758 32.6406 152.195 32.4219 151.656 32.125C151.125 31.8281 150.68 31.4531 150.32 31L151.809 29.0078C152.199 29.4609 152.652 29.8125 153.168 30.0625C153.684 30.3203 154.254 30.4492 154.879 30.4492C155.488 30.4492 156.004 30.3359 156.426 30.1094C156.848 29.8906 157.172 29.5664 157.398 29.1367C157.625 28.7148 157.738 28.2031 157.738 27.6016V18.25L158.066 15.3203ZM149.535 21.8125V21.5664C149.535 20.5977 149.652 19.7188 149.887 18.9297C150.129 18.1328 150.469 17.4492 150.906 16.8789C151.352 16.3086 151.891 15.8672 152.523 15.5547C153.156 15.2422 153.871 15.0859 154.668 15.0859C155.512 15.0859 156.219 15.2422 156.789 15.5547C157.359 15.8672 157.828 16.3125 158.195 16.8906C158.562 17.4609 158.848 18.1367 159.051 18.918C159.262 19.6914 159.426 20.5391 159.543 21.4609V22C159.426 22.8828 159.25 23.7031 159.016 24.4609C158.781 25.2188 158.473 25.8828 158.09 26.4531C157.707 27.0156 157.23 27.4531 156.66 27.7656C156.098 28.0781 155.426 28.2344 154.645 28.2344C153.863 28.2344 153.156 28.0742 152.523 27.7539C151.898 27.4336 151.363 26.9844 150.918 26.4062C150.473 25.8281 150.129 25.1484 149.887 24.3672C149.652 23.5859 149.535 22.7344 149.535 21.8125ZM152.91 21.5664V21.8125C152.91 22.3359 152.961 22.8242 153.062 23.2773C153.164 23.7305 153.32 24.1328 153.531 24.4844C153.75 24.8281 154.02 25.0977 154.34 25.293C154.668 25.4805 155.055 25.5742 155.5 25.5742C156.117 25.5742 156.621 25.4453 157.012 25.1875C157.402 24.9219 157.695 24.5586 157.891 24.0977C158.086 23.6367 158.199 23.1055 158.23 22.5039V20.9688C158.215 20.4766 158.148 20.0352 158.031 19.6445C157.914 19.2461 157.75 18.9062 157.539 18.625C157.328 18.3438 157.055 18.125 156.719 17.9688C156.383 17.8125 155.984 17.7344 155.523 17.7344C155.078 17.7344 154.691 17.8359 154.363 18.0391C154.043 18.2344 153.773 18.5039 153.555 18.8477C153.344 19.1914 153.184 19.5977 153.074 20.0664C152.965 20.5273 152.91 21.0273 152.91 21.5664ZM169.586 28.2344C168.602 28.2344 167.719 28.0781 166.938 27.7656C166.156 27.4453 165.492 27.0039 164.945 26.4414C164.406 25.8789 163.992 25.2266 163.703 24.4844C163.414 23.7344 163.27 22.9375 163.27 22.0938V21.625C163.27 20.6641 163.406 19.7852 163.68 18.9883C163.953 18.1914 164.344 17.5 164.852 16.9141C165.367 16.3281 165.992 15.8789 166.727 15.5664C167.461 15.2461 168.289 15.0859 169.211 15.0859C170.109 15.0859 170.906 15.2344 171.602 15.5312C172.297 15.8281 172.879 16.25 173.348 16.7969C173.824 17.3438 174.184 18 174.426 18.7656C174.668 19.5234 174.789 20.3672 174.789 21.2969V22.7031H164.711V20.4531H171.473V20.1953C171.473 19.7266 171.387 19.3086 171.215 18.9414C171.051 18.5664 170.801 18.2695 170.465 18.0508C170.129 17.832 169.699 17.7227 169.176 17.7227C168.73 17.7227 168.348 17.8203 168.027 18.0156C167.707 18.2109 167.445 18.4844 167.242 18.8359C167.047 19.1875 166.898 19.6016 166.797 20.0781C166.703 20.5469 166.656 21.0625 166.656 21.625V22.0938C166.656 22.6016 166.727 23.0703 166.867 23.5C167.016 23.9297 167.223 24.3008 167.488 24.6133C167.762 24.9258 168.09 25.168 168.473 25.3398C168.863 25.5117 169.305 25.5977 169.797 25.5977C170.406 25.5977 170.973 25.4805 171.496 25.2461C172.027 25.0039 172.484 24.6406 172.867 24.1562L174.508 25.9375C174.242 26.3203 173.879 26.6875 173.418 27.0391C172.965 27.3906 172.418 27.6797 171.777 27.9062C171.137 28.125 170.406 28.2344 169.586 28.2344ZM192.789 22.3398H196.293C196.223 23.4883 195.906 24.5078 195.344 25.3984C194.789 26.2891 194.012 26.9844 193.012 27.4844C192.02 27.9844 190.824 28.2344 189.426 28.2344C188.332 28.2344 187.352 28.0469 186.484 27.6719C185.617 27.2891 184.875 26.7422 184.258 26.0312C183.648 25.3203 183.184 24.4609 182.863 23.4531C182.543 22.4453 182.383 21.3164 182.383 20.0664V18.8828C182.383 17.6328 182.547 16.5039 182.875 15.4961C183.211 14.4805 183.688 13.6172 184.305 12.9062C184.93 12.1953 185.676 11.6484 186.543 11.2656C187.41 10.8828 188.379 10.6914 189.449 10.6914C190.871 10.6914 192.07 10.9492 193.047 11.4648C194.031 11.9805 194.793 12.6914 195.332 13.5977C195.879 14.5039 196.207 15.5352 196.316 16.6914H192.801C192.762 16.0039 192.625 15.4219 192.391 14.9453C192.156 14.4609 191.801 14.0977 191.324 13.8555C190.855 13.6055 190.23 13.4805 189.449 13.4805C188.863 13.4805 188.352 13.5898 187.914 13.8086C187.477 14.0273 187.109 14.3594 186.812 14.8047C186.516 15.25 186.293 15.8125 186.145 16.4922C186.004 17.1641 185.934 17.9531 185.934 18.8594V20.0664C185.934 20.9492 186 21.7266 186.133 22.3984C186.266 23.0625 186.469 23.625 186.742 24.0859C187.023 24.5391 187.383 24.8828 187.82 25.1172C188.266 25.3438 188.801 25.457 189.426 25.457C190.16 25.457 190.766 25.3398 191.242 25.1055C191.719 24.8711 192.082 24.5234 192.332 24.0625C192.59 23.6016 192.742 23.0273 192.789 22.3398ZM205.234 25.1406V19.4922C205.234 19.0859 205.168 18.7383 205.035 18.4492C204.902 18.1523 204.695 17.9219 204.414 17.7578C204.141 17.5938 203.785 17.5117 203.348 17.5117C202.973 17.5117 202.648 17.5781 202.375 17.7109C202.102 17.8359 201.891 18.0195 201.742 18.2617C201.594 18.4961 201.52 18.7734 201.52 19.0938H198.145C198.145 18.5547 198.27 18.043 198.52 17.5586C198.77 17.0742 199.133 16.6484 199.609 16.2812C200.086 15.9062 200.652 15.6133 201.309 15.4023C201.973 15.1914 202.715 15.0859 203.535 15.0859C204.52 15.0859 205.395 15.25 206.16 15.5781C206.926 15.9062 207.527 16.3984 207.965 17.0547C208.41 17.7109 208.633 18.5312 208.633 19.5156V24.9414C208.633 25.6367 208.676 26.207 208.762 26.6523C208.848 27.0898 208.973 27.4727 209.137 27.8008V28H205.727C205.562 27.6562 205.438 27.2266 205.352 26.7109C205.273 26.1875 205.234 25.6641 205.234 25.1406ZM205.68 20.2773L205.703 22.1875H203.816C203.371 22.1875 202.984 22.2383 202.656 22.3398C202.328 22.4414 202.059 22.5859 201.848 22.7734C201.637 22.9531 201.48 23.1641 201.379 23.4062C201.285 23.6484 201.238 23.9141 201.238 24.2031C201.238 24.4922 201.305 24.7539 201.438 24.9883C201.57 25.2148 201.762 25.3945 202.012 25.5273C202.262 25.6523 202.555 25.7148 202.891 25.7148C203.398 25.7148 203.84 25.6133 204.215 25.4102C204.59 25.207 204.879 24.957 205.082 24.6602C205.293 24.3633 205.402 24.082 205.41 23.8164L206.301 25.2461C206.176 25.5664 206.004 25.8984 205.785 26.2422C205.574 26.5859 205.305 26.9102 204.977 27.2148C204.648 27.5117 204.254 27.7578 203.793 27.9531C203.332 28.1406 202.785 28.2344 202.152 28.2344C201.348 28.2344 200.617 28.0742 199.961 27.7539C199.312 27.4258 198.797 26.9766 198.414 26.4062C198.039 25.8281 197.852 25.1719 197.852 24.4375C197.852 23.7734 197.977 23.1836 198.227 22.668C198.477 22.1523 198.844 21.7188 199.328 21.3672C199.82 21.0078 200.434 20.7383 201.168 20.5586C201.902 20.3711 202.754 20.2773 203.723 20.2773H205.68ZM214.797 10V28H211.41V10H214.797ZM222.824 25.5977C223.238 25.5977 223.605 25.5195 223.926 25.3633C224.246 25.1992 224.496 24.9727 224.676 24.6836C224.863 24.3867 224.961 24.0391 224.969 23.6406H228.145C228.137 24.5312 227.898 25.3242 227.43 26.0195C226.961 26.707 226.332 27.25 225.543 27.6484C224.754 28.0391 223.871 28.2344 222.895 28.2344C221.91 28.2344 221.051 28.0703 220.316 27.7422C219.59 27.4141 218.984 26.9609 218.5 26.3828C218.016 25.7969 217.652 25.1172 217.41 24.3438C217.168 23.5625 217.047 22.7266 217.047 21.8359V21.4961C217.047 20.5977 217.168 19.7617 217.41 18.9883C217.652 18.207 218.016 17.5273 218.5 16.9492C218.984 16.3633 219.59 15.9062 220.316 15.5781C221.043 15.25 221.895 15.0859 222.871 15.0859C223.91 15.0859 224.82 15.2852 225.602 15.6836C226.391 16.082 227.008 16.6523 227.453 17.3945C227.906 18.1289 228.137 19 228.145 20.0078H224.969C224.961 19.5859 224.871 19.2031 224.699 18.8594C224.535 18.5156 224.293 18.2422 223.973 18.0391C223.66 17.8281 223.273 17.7227 222.812 17.7227C222.32 17.7227 221.918 17.8281 221.605 18.0391C221.293 18.2422 221.051 18.5234 220.879 18.8828C220.707 19.2344 220.586 19.6367 220.516 20.0898C220.453 20.5352 220.422 21.0039 220.422 21.4961V21.8359C220.422 22.3281 220.453 22.8008 220.516 23.2539C220.578 23.707 220.695 24.1094 220.867 24.4609C221.047 24.8125 221.293 25.0898 221.605 25.293C221.918 25.4961 222.324 25.5977 222.824 25.5977ZM237.602 24.9648V15.3203H240.977V28H237.801L237.602 24.9648ZM237.977 22.3633L238.973 22.3398C238.973 23.1836 238.875 23.9688 238.68 24.6953C238.484 25.4141 238.191 26.0391 237.801 26.5703C237.41 27.0938 236.918 27.5039 236.324 27.8008C235.73 28.0898 235.031 28.2344 234.227 28.2344C233.609 28.2344 233.039 28.1484 232.516 27.9766C232 27.7969 231.555 27.5195 231.18 27.1445C230.812 26.7617 230.523 26.2734 230.312 25.6797C230.109 25.0781 230.008 24.3555 230.008 23.5117V15.3203H233.383V23.5352C233.383 23.9102 233.426 24.2266 233.512 24.4844C233.605 24.7422 233.734 24.9531 233.898 25.1172C234.062 25.2812 234.254 25.3984 234.473 25.4688C234.699 25.5391 234.949 25.5742 235.223 25.5742C235.918 25.5742 236.465 25.4336 236.863 25.1523C237.27 24.8711 237.555 24.4883 237.719 24.0039C237.891 23.5117 237.977 22.9648 237.977 22.3633ZM247.117 10V28H243.73V10H247.117ZM256.75 25.1406V19.4922C256.75 19.0859 256.684 18.7383 256.551 18.4492C256.418 18.1523 256.211 17.9219 255.93 17.7578C255.656 17.5938 255.301 17.5117 254.863 17.5117C254.488 17.5117 254.164 17.5781 253.891 17.7109C253.617 17.8359 253.406 18.0195 253.258 18.2617C253.109 18.4961 253.035 18.7734 253.035 19.0938H249.66C249.66 18.5547 249.785 18.043 250.035 17.5586C250.285 17.0742 250.648 16.6484 251.125 16.2812C251.602 15.9062 252.168 15.6133 252.824 15.4023C253.488 15.1914 254.23 15.0859 255.051 15.0859C256.035 15.0859 256.91 15.25 257.676 15.5781C258.441 15.9062 259.043 16.3984 259.48 17.0547C259.926 17.7109 260.148 18.5312 260.148 19.5156V24.9414C260.148 25.6367 260.191 26.207 260.277 26.6523C260.363 27.0898 260.488 27.4727 260.652 27.8008V28H257.242C257.078 27.6562 256.953 27.2266 256.867 26.7109C256.789 26.1875 256.75 25.6641 256.75 25.1406ZM257.195 20.2773L257.219 22.1875H255.332C254.887 22.1875 254.5 22.2383 254.172 22.3398C253.844 22.4414 253.574 22.5859 253.363 22.7734C253.152 22.9531 252.996 23.1641 252.895 23.4062C252.801 23.6484 252.754 23.9141 252.754 24.2031C252.754 24.4922 252.82 24.7539 252.953 24.9883C253.086 25.2148 253.277 25.3945 253.527 25.5273C253.777 25.6523 254.07 25.7148 254.406 25.7148C254.914 25.7148 255.355 25.6133 255.73 25.4102C256.105 25.207 256.395 24.957 256.598 24.6602C256.809 24.3633 256.918 24.082 256.926 23.8164L257.816 25.2461C257.691 25.5664 257.52 25.8984 257.301 26.2422C257.09 26.5859 256.82 26.9102 256.492 27.2148C256.164 27.5117 255.77 27.7578 255.309 27.9531C254.848 28.1406 254.301 28.2344 253.668 28.2344C252.863 28.2344 252.133 28.0742 251.477 27.7539C250.828 27.4258 250.312 26.9766 249.93 26.4062C249.555 25.8281 249.367 25.1719 249.367 24.4375C249.367 23.7734 249.492 23.1836 249.742 22.668C249.992 22.1523 250.359 21.7188 250.844 21.3672C251.336 21.0078 251.949 20.7383 252.684 20.5586C253.418 20.3711 254.27 20.2773 255.238 20.2773H257.195ZM268.961 15.3203V17.7109H261.578V15.3203H268.961ZM263.406 12.1914H266.781V24.1797C266.781 24.5469 266.828 24.8281 266.922 25.0234C267.023 25.2188 267.172 25.3555 267.367 25.4336C267.562 25.5039 267.809 25.5391 268.105 25.5391C268.316 25.5391 268.504 25.5312 268.668 25.5156C268.84 25.4922 268.984 25.4688 269.102 25.4453L269.113 27.9297C268.824 28.0234 268.512 28.0977 268.176 28.1523C267.84 28.207 267.469 28.2344 267.062 28.2344C266.32 28.2344 265.672 28.1133 265.117 27.8711C264.57 27.6211 264.148 27.2227 263.852 26.6758C263.555 26.1289 263.406 25.4102 263.406 24.5195V12.1914ZM270.039 21.7891V21.543C270.039 20.6133 270.172 19.7578 270.438 18.9766C270.703 18.1875 271.09 17.5039 271.598 16.9258C272.105 16.3477 272.73 15.8984 273.473 15.5781C274.215 15.25 275.066 15.0859 276.027 15.0859C276.988 15.0859 277.844 15.25 278.594 15.5781C279.344 15.8984 279.973 16.3477 280.48 16.9258C280.996 17.5039 281.387 18.1875 281.652 18.9766C281.918 19.7578 282.051 20.6133 282.051 21.543V21.7891C282.051 22.7109 281.918 23.5664 281.652 24.3555C281.387 25.1367 280.996 25.8203 280.48 26.4062C279.973 26.9844 279.348 27.4336 278.605 27.7539C277.863 28.0742 277.012 28.2344 276.051 28.2344C275.09 28.2344 274.234 28.0742 273.484 27.7539C272.742 27.4336 272.113 26.9844 271.598 26.4062C271.09 25.8203 270.703 25.1367 270.438 24.3555C270.172 23.5664 270.039 22.7109 270.039 21.7891ZM273.414 21.543V21.7891C273.414 22.3203 273.461 22.8164 273.555 23.2773C273.648 23.7383 273.797 24.1445 274 24.4961C274.211 24.8398 274.484 25.1094 274.82 25.3047C275.156 25.5 275.566 25.5977 276.051 25.5977C276.52 25.5977 276.922 25.5 277.258 25.3047C277.594 25.1094 277.863 24.8398 278.066 24.4961C278.27 24.1445 278.418 23.7383 278.512 23.2773C278.613 22.8164 278.664 22.3203 278.664 21.7891V21.543C278.664 21.0273 278.613 20.543 278.512 20.0898C278.418 19.6289 278.266 19.2227 278.055 18.8711C277.852 18.5117 277.582 18.2305 277.246 18.0273C276.91 17.8242 276.504 17.7227 276.027 17.7227C275.551 17.7227 275.145 17.8242 274.809 18.0273C274.48 18.2305 274.211 18.5117 274 18.8711C273.797 19.2227 273.648 19.6289 273.555 20.0898C273.461 20.543 273.414 21.0273 273.414 21.543ZM287.5 18.0859V28H284.125V15.3203H287.301L287.5 18.0859ZM291.32 15.2383L291.262 18.3672C291.098 18.3438 290.898 18.3242 290.664 18.3086C290.438 18.2852 290.23 18.2734 290.043 18.2734C289.566 18.2734 289.152 18.3359 288.801 18.4609C288.457 18.5781 288.168 18.7539 287.934 18.9883C287.707 19.2227 287.535 19.5078 287.418 19.8438C287.309 20.1797 287.246 20.5625 287.23 20.9922L286.551 20.7812C286.551 19.9609 286.633 19.207 286.797 18.5195C286.961 17.8242 287.199 17.2188 287.512 16.7031C287.832 16.1875 288.223 15.7891 288.684 15.5078C289.145 15.2266 289.672 15.0859 290.266 15.0859C290.453 15.0859 290.645 15.1016 290.84 15.1328C291.035 15.1562 291.195 15.1914 291.32 15.2383Z" style="fill: rgb(255, 255, 255);"/>
  <rect width="40" height="40" style="fill: rgb(255, 255, 255);"/>
  <path d="M12.2159 8C13.3839 8 14.3527 8.1592 15.1225 8.47761C15.8923 8.76949 16.5028 9.3665 16.9541 10.2687C17.4053 11.1708 17.6309 12.4975 17.6309 14.2488C17.6309 16.6368 17.1664 18.2687 16.2374 19.1443C15.3349 20.0199 13.9944 20.4577 12.2159 20.4577C10.5171 20.4577 9.21644 20.0066 8.31394 19.1045C7.43798 18.2023 7 16.6633 7 14.4876C7 12.2852 7.42471 10.6534 8.27412 9.59204C9.15008 8.53068 10.464 8 12.2159 8ZM24.9969 8.0398H29.8943L15.2021 31.9204H10.3047L24.9969 8.0398ZM12.3354 17.7512C13.0255 17.7512 13.4768 17.4726 13.6891 16.9154C13.9015 16.3582 14.0077 15.4826 14.0077 14.2886C14.0077 13.0945 13.8882 12.2056 13.6493 11.6219C13.437 11.0381 13.0123 10.733 12.3752 10.7065H12.1761C11.6983 10.7065 11.3798 10.7861 11.2205 10.9453C11.0878 11.0779 10.9684 11.5025 10.8622 12.2189C10.7825 12.9088 10.7427 13.6252 10.7427 14.3682C10.7427 15.6153 10.8622 16.4909 11.1011 16.995C11.3665 17.4992 11.7779 17.7512 12.3354 17.7512ZM27.585 19.5423C28.7529 19.5423 29.7218 19.7015 30.4916 20.0199C31.2614 20.3118 31.8719 20.9088 32.3231 21.8109C32.7744 22.7131 33 24.0398 33 25.791C33 28.1791 32.5355 29.8109 31.6064 30.6866C30.7039 31.5622 29.3635 32 27.585 32C25.8862 32 24.5855 31.5489 23.683 30.6468C22.807 29.7446 22.3691 28.2056 22.3691 26.0299C22.3691 23.8275 22.7938 22.1957 23.6432 21.1343C24.5191 20.073 25.8331 19.5423 27.585 19.5423ZM27.7044 29.2935C28.3946 29.2935 28.8458 29.0149 29.0582 28.4577C29.2705 27.9005 29.3767 27.0249 29.3767 25.8308C29.3767 24.6368 29.2573 23.7479 29.0184 23.1642C28.806 22.5804 28.3813 22.2753 27.7443 22.2488H27.5452C27.0674 22.2488 26.7489 22.3284 26.5896 22.4876C26.4569 22.6202 26.3374 23.0448 26.2312 23.7612C26.1516 24.4511 26.1118 25.1675 26.1118 25.9104C26.1118 27.1575 26.2312 28.0332 26.4701 28.5373C26.7356 29.0415 27.147 29.2935 27.7044 29.2935Z" fill="#47BDFF"/>
</svg>